<svg width="59" height="54" viewBox="0 0 59 54" fill="none" xmlns="http://www.w3.org/2000/svg">
<g clip-path="url(#clip0_411_4107)">
<path d="M28.4589 1.52732C28.6334 1.87523 28.6328 2.25875 28.6712 2.64158C28.6808 2.73419 28.6904 2.82679 28.7004 2.92221C28.7322 3.22913 28.7633 3.53611 28.7945 3.84309C28.8164 4.05558 28.8384 4.26807 28.8603 4.48056C28.9181 5.04047 28.9754 5.60043 29.0325 6.1604C29.0909 6.73154 29.1498 7.30264 29.2086 7.87374C29.3241 8.99478 29.439 10.1159 29.5535 11.237C29.2232 11.1604 28.9772 11.0625 28.6872 10.8854C28.6049 10.8361 28.5227 10.7867 28.4379 10.7359C28.35 10.683 28.2621 10.6301 28.1715 10.5756C25.0298 8.73207 21.39 7.6742 17.7518 8.55421C15.8959 9.05446 14.2641 9.87255 12.8058 11.1279C12.7241 11.1936 12.6424 11.2593 12.5582 11.3269C10.5012 13.0336 9.08777 15.8446 8.77881 18.4792C8.57896 21.8948 9.14497 25.3662 11.4991 28.0102C11.6417 28.1659 11.7858 28.3202 11.9301 28.4744C11.9925 28.5466 12.0549 28.6187 12.1191 28.6931C13.7248 30.4616 16.4975 31.5621 18.8262 31.7474C20.3531 31.8197 21.8264 31.7815 23.3142 31.4201C23.3857 31.4037 23.4573 31.3873 23.5311 31.3704C26.3136 30.7168 28.8345 29.207 31.086 27.4926C31.1582 27.5286 31.2305 27.5646 31.3049 27.6017C31.3522 27.859 31.3849 28.1067 31.4101 28.3665C31.4187 28.4465 31.4273 28.5265 31.4361 28.609C31.4643 28.8748 31.4911 29.1409 31.5178 29.4069C31.5371 29.5913 31.5564 29.7758 31.5758 29.9602C31.6163 30.3475 31.6562 30.7349 31.6955 31.1224C31.7459 31.6186 31.7974 32.1147 31.8494 32.6107C31.8989 33.0837 31.9478 33.5568 31.9967 34.0299C32.0061 34.1201 32.0154 34.2103 32.0251 34.3032C32.0516 34.5594 32.0777 34.8156 32.1037 35.0718C32.1115 35.1472 32.1194 35.2226 32.1274 35.3002C32.2118 36.1418 32.2118 36.1418 32.1806 36.4386C31.9203 36.6432 31.6888 36.7933 31.4007 36.95C31.2767 37.0196 31.2767 37.0196 31.1503 37.0907C27.4665 39.1169 23.1763 40.3888 18.9357 40.1479C18.7934 40.1401 18.7934 40.1401 18.6483 40.1321C15.0622 39.9213 11.5833 39.053 8.53679 37.0932C8.47236 37.0517 8.40793 37.0103 8.34155 36.9676C6.3734 35.6677 4.39226 33.7716 3.17316 31.7474C3.11122 31.6453 3.11122 31.6453 3.04804 31.5411C2.74469 31.0365 2.46074 30.5234 2.188 30.0018C2.15345 29.9359 2.1189 29.87 2.0833 29.8022C-0.00757959 25.7478 -0.758815 20.2827 0.327147 15.8191C0.348895 15.7286 0.370642 15.638 0.393049 15.5448C1.23005 12.1742 2.75908 9.09944 5.15032 6.55817C5.37036 6.32461 5.37036 6.32461 5.58474 6.0472C5.90622 5.65178 6.28697 5.34608 6.67594 5.01845C6.76949 4.93618 6.86304 4.85391 6.95943 4.76914C9.47664 2.59758 12.5279 1.17857 15.7613 0.436347C15.8511 0.414953 15.941 0.393559 16.0336 0.371517C19.8606 -0.505015 24.9336 -0.381283 28.4589 1.52732Z" fill="#77C8B4"/>
<path d="M59.0014 2.72705C59.0421 3.92763 59.0732 5.12803 59.0921 6.32916C59.1013 6.88705 59.1136 7.44447 59.1335 8.00209C59.1527 8.54116 59.1631 9.07978 59.1676 9.61917C59.1708 9.824 59.1771 10.0288 59.1866 10.2334C59.2561 11.7926 59.2561 11.7926 58.8323 12.3198C58.4177 12.7062 57.9555 12.9961 57.4674 13.2809C57.0208 13.5639 56.6602 13.9423 56.2798 14.3063C55.993 14.5759 55.6882 14.8184 55.3802 15.0635C54.7695 15.5602 54.2105 16.0925 53.657 16.6511C53.5615 16.7465 53.466 16.842 53.3677 16.9404C53.0672 17.241 52.7675 17.5424 52.4679 17.8439C52.2626 18.0498 52.057 18.2555 51.8515 18.4612C51.3517 18.9617 50.8526 19.4628 50.3539 19.9645C50.4574 20.0864 50.5611 20.2081 50.6648 20.3298C50.7226 20.3976 50.7803 20.4654 50.8397 20.5352C51.0729 20.7983 51.3286 21.0274 51.5922 21.26C52.4936 22.069 53.3398 22.9347 54.1923 23.7941C54.7337 24.3388 55.2768 24.8747 55.8626 25.3725C56.1203 25.5917 56.3661 25.8231 56.6138 26.0535C57.3622 26.7347 58.1576 27.368 59.0014 27.9286C59.0327 28.2386 59.0428 28.5246 59.0387 28.8347C59.0387 28.9284 59.0388 29.022 59.0388 29.1185C59.0386 29.4291 59.036 29.7395 59.0335 30.05C59.0329 30.265 59.0324 30.4799 59.0321 30.6949C59.0308 31.2613 59.0276 31.8277 59.024 32.3941C59.0206 32.9717 59.0191 33.5494 59.0174 34.1271C59.0139 35.2612 59.0083 36.3952 59.0014 37.5292C58.6455 37.3905 58.3261 37.2461 58.0034 37.0417C57.9198 36.9889 57.8361 36.9362 57.7499 36.8818C57.6617 36.8254 57.5735 36.7691 57.4826 36.711C57.3905 36.6524 57.2984 36.5938 57.2035 36.5335C56.9267 36.3569 56.6504 36.1795 56.3743 36.0018C56.2976 35.9527 56.2208 35.9036 56.1418 35.853C54.2043 34.61 52.4462 33.1403 50.7584 31.5808C50.5201 31.3626 50.2789 31.1511 50.0324 30.9424C49.565 30.5399 49.1345 30.1013 48.703 29.6612C48.4005 29.3548 48.0925 29.0632 47.7645 28.7839C47.1365 28.2431 46.5595 27.6496 45.9754 27.0626C45.8582 26.9452 45.7409 26.8278 45.6235 26.7104C45.3392 26.4258 45.0552 26.1409 44.7713 25.8557C44.4441 26.0021 44.2175 26.1631 43.9661 26.4171C43.8966 26.4867 43.8272 26.5563 43.7556 26.628C43.6816 26.7032 43.6076 26.7784 43.5313 26.856C43.4539 26.9337 43.3764 27.0115 43.2966 27.0917C43.0488 27.3406 42.8017 27.5902 42.5547 27.84C42.3093 28.0877 42.0636 28.3352 41.8176 28.5824C41.6648 28.7361 41.5122 28.89 41.36 29.0443C40.9341 29.4731 40.4955 29.879 40.0369 30.273C39.8255 30.4551 39.6211 30.6433 39.4193 30.8359C39.3493 30.9022 39.2793 30.9685 39.2072 31.0369C39.1356 31.1047 39.0641 31.1726 38.9904 31.2424C38.3132 31.8792 37.6188 32.4784 36.8901 33.0562C36.7445 33.1757 36.5991 33.2955 36.4539 33.4154C36.3768 33.4789 36.2997 33.5423 36.2203 33.6076C36.069 33.732 35.9181 33.8567 35.7675 33.9819C35.3231 34.3451 34.8794 34.6405 34.3725 34.9109C34.1062 32.7355 33.862 30.5583 33.6336 28.3786C33.6213 28.2618 33.609 28.145 33.5963 28.0247C33.5611 27.6907 33.5263 27.3566 33.4916 27.0226C33.4811 26.922 33.4705 26.8215 33.4596 26.7179C33.45 26.625 33.4404 26.532 33.4306 26.4362C33.4222 26.3554 33.4138 26.2745 33.4051 26.1912C33.3878 25.9709 33.3873 25.7494 33.3873 25.5285C33.5404 25.3533 33.5404 25.3533 33.7567 25.1807C35.0132 24.1569 36.1437 23.0125 37.2869 21.8669C37.4612 21.6926 37.6355 21.5184 37.8098 21.3442C38.2333 20.9209 38.6564 20.4974 39.0793 20.0736C38.6436 19.6366 38.2076 19.2 37.7712 18.7638C37.6231 18.6157 37.4751 18.4674 37.3272 18.3191C36.301 17.2843 36.301 17.2843 35.2178 16.3099C34.8629 16.0015 34.5378 15.6627 34.2083 15.3278C33.3307 14.3776 33.3307 14.3776 32.2911 13.6335C31.9549 13.3011 31.9645 12.9065 31.9218 12.457C31.9109 12.3587 31.9 12.2604 31.8888 12.1591C31.8531 11.8338 31.8204 11.5082 31.7877 11.1825C31.7637 10.9566 31.7395 10.7306 31.7152 10.5047C31.6646 10.0309 31.6153 9.55703 31.567 9.08303C31.5051 8.47517 31.4408 7.86759 31.3756 7.26008C31.3257 6.79341 31.2766 6.32665 31.2278 5.85986C31.2043 5.63578 31.1807 5.41173 31.1569 5.18769C31.1239 4.87462 31.0919 4.56147 31.0602 4.24827C31.0503 4.15547 31.0404 4.06268 31.0301 3.96708C30.9901 3.56108 30.9732 3.2275 31.0886 2.83615C33.8879 4.44437 36.3719 6.4496 38.7509 8.61832C38.8067 8.66895 38.8624 8.71958 38.9198 8.77174C39.5983 9.38848 40.2692 10.0082 40.9081 10.666C41.1137 10.8653 41.3222 11.0497 41.5401 11.235C42.1932 11.8001 42.7943 12.4184 43.4031 13.03C43.5256 13.1526 43.6482 13.2753 43.7708 13.398C44.0681 13.6955 44.3651 13.9933 44.6619 14.2914C45.4237 13.664 46.1066 12.9668 46.7996 12.2656C47.2849 11.7775 47.7758 11.3074 48.2992 10.8601C48.5788 10.6164 48.8356 10.3561 49.0951 10.0911C49.5696 9.61259 50.0583 9.16259 50.5728 8.72742C50.6865 8.62908 50.8001 8.53062 50.9136 8.43209C51.621 7.82005 52.3385 7.22633 53.0793 6.65486C53.4856 6.34066 53.8778 6.01463 54.2672 5.67951C55.4083 4.72643 56.6833 3.94657 57.9615 3.19072C58.0408 3.14374 58.12 3.09677 58.2017 3.04838C58.755 2.72705 58.755 2.72705 59.0014 2.72705Z" fill="#7BC9B4"/>
<path d="M43.5664 46.4756C45.4087 46.4756 47.2509 46.4756 49.149 46.4756C49.149 46.9076 49.149 47.3396 49.149 47.7848C49.0395 47.8939 49.0395 47.8939 48.6854 47.9062C48.5285 47.9062 48.3716 47.9056 48.2147 47.9045C48.091 47.9043 48.091 47.9043 47.9648 47.904C47.7005 47.9034 47.4362 47.9021 47.1718 47.9007C46.993 47.9001 46.8142 47.8996 46.6354 47.8992C46.1962 47.898 45.757 47.8961 45.3178 47.8939C45.3178 48.3979 45.3178 48.9019 45.3178 49.4212C46.4015 49.4212 47.4851 49.4212 48.6017 49.4212C48.6017 49.8893 48.6017 50.3573 48.6017 50.8395C47.518 50.8395 46.4343 50.8395 45.3178 50.8395C45.3178 51.3435 45.3178 51.8476 45.3178 52.3669C46.6182 52.3669 47.9186 52.3669 49.2584 52.3669C49.2584 52.8349 49.2584 53.3029 49.2584 53.7851C47.3801 53.7851 45.5017 53.7851 43.5664 53.7851C43.5664 51.373 43.5664 48.9608 43.5664 46.4756Z" fill="#5B5B5B"/>
<path d="M8.64619 46.8028C8.95065 47.0074 9.24046 47.2223 9.52189 47.4573C9.45797 47.8404 9.32126 48.0345 9.04983 48.3097C8.98478 48.3779 8.91973 48.4461 8.85271 48.5164C8.64619 48.6574 8.64619 48.6574 8.41786 48.6378C8.20834 48.5483 8.20834 48.5483 7.95521 48.3369C7.45441 47.9539 6.97381 47.8684 6.35433 47.9005C5.70055 47.9878 5.20049 48.2196 4.77312 48.7286C4.38011 49.3764 4.39845 50.107 4.48663 50.8394C4.62457 51.3755 4.87061 51.7117 5.32128 52.0326C5.90798 52.3527 6.51272 52.4508 7.16803 52.3066C7.57051 52.1782 7.9421 52.0135 8.3178 51.8212C8.3178 51.7492 8.3178 51.6772 8.3178 51.603C8.64534 51.7518 8.89689 51.9248 9.16613 52.1622C9.2333 52.221 9.30046 52.2797 9.36967 52.3403C9.4199 52.385 9.47013 52.4298 9.52189 52.4758C9.48211 52.7672 9.44024 52.8874 9.21702 53.0865C9.13475 53.1393 9.05249 53.192 8.96773 53.2463C8.8473 53.3259 8.8473 53.3259 8.72444 53.407C8.01411 53.789 7.39458 53.953 6.58694 53.9418C6.50065 53.9408 6.41437 53.9397 6.32547 53.9386C5.15528 53.9033 4.36471 53.5575 3.51944 52.7405C2.74443 51.8746 2.47655 50.9483 2.53 49.8029C2.63979 48.7348 3.04263 47.9713 3.82986 47.2391C5.12737 46.2069 7.1759 45.9138 8.64619 46.8028Z" fill="#5B5B5B"/>
<path d="M34.9765 48.3371C35.7108 48.7687 36.2048 49.3657 36.4474 50.185C36.4474 50.617 36.4474 51.049 36.4474 51.4941C35.0747 51.4941 33.7021 51.4941 32.2878 51.4941C32.4233 52.1336 32.4233 52.1336 32.7496 52.2966C33.0964 52.3767 33.4095 52.3998 33.7655 52.401C33.8863 52.4028 34.0071 52.4047 34.1316 52.4066C34.5112 52.363 34.7086 52.2452 35.0244 52.0396C35.4481 52.1452 35.7365 52.4767 36.0095 52.8033C35.9963 53.0211 35.9963 53.0211 35.9 53.2397C35.7093 53.3978 35.7093 53.3978 35.4759 53.5329C35.3994 53.5783 35.3229 53.6238 35.2441 53.6706C34.4757 54.0713 33.3217 54.0097 32.4883 53.812C31.6 53.4705 31.0906 52.979 30.6459 52.1487C30.3836 51.3645 30.4084 50.3409 30.7485 49.5849C31.5964 48.1445 33.462 47.6408 34.9765 48.3371ZM32.6162 49.6395C32.282 50.031 32.282 50.031 32.1783 50.5123C33.0453 50.5123 33.9122 50.5123 34.8054 50.5123C34.7616 49.8828 34.7616 49.8828 34.4634 49.6054C33.7948 49.2143 33.2786 49.2533 32.6162 49.6395Z" fill="#5B5B5B"/>
<path d="M27.6483 48.3371C28.3827 48.7687 28.8767 49.3657 29.1192 50.185C29.1192 50.617 29.1192 51.049 29.1192 51.4941C27.7466 51.4941 26.3739 51.4941 24.9597 51.4941C25.0951 52.1336 25.0951 52.1336 25.4215 52.2966C25.7683 52.3767 26.0813 52.3998 26.4374 52.401C26.5582 52.4028 26.679 52.4047 26.8034 52.4066C27.183 52.363 27.3805 52.2452 27.6962 52.0396C28.12 52.1452 28.4083 52.4767 28.6814 52.8033C28.6681 53.0211 28.6681 53.0211 28.5719 53.2397C28.3812 53.3978 28.3812 53.3978 28.1478 53.5329C28.0713 53.5783 27.9948 53.6238 27.916 53.6706C27.1476 54.0713 25.9936 54.0097 25.1602 53.812C24.2719 53.4705 23.7625 52.979 23.3177 52.1487C23.0554 51.3645 23.0803 50.3409 23.4204 49.5849C24.2683 48.1445 26.1339 47.6408 27.6483 48.3371ZM25.2881 49.6395C24.9539 50.031 24.9539 50.031 24.8502 50.5123C25.7172 50.5123 26.5841 50.5123 27.4773 50.5123C27.4335 49.8828 27.4335 49.8828 27.1352 49.6054C26.4666 49.2143 25.9505 49.2533 25.2881 49.6395Z" fill="#5B5B5B"/>
<path d="M15.2444 48.4099C15.7222 48.7593 16.0237 49.1826 16.2 49.7485C16.2182 50.0644 16.2256 50.3693 16.2214 50.6848C16.2211 50.7736 16.2208 50.8624 16.2205 50.9539C16.2192 51.2363 16.2165 51.5186 16.2137 51.8009C16.2126 51.9929 16.2116 52.1849 16.2107 52.3769C16.2083 52.8463 16.2045 53.3157 16.2 53.7851C15.6943 53.7851 15.1886 53.7851 14.6675 53.7851C14.6314 53.6771 14.5953 53.5691 14.5581 53.4578C14.4655 53.5298 14.373 53.6018 14.2776 53.676C13.6289 54.0441 12.8687 53.9848 12.1499 53.8942C11.6353 53.7025 11.2201 53.3947 10.9458 52.9123C10.7742 52.399 10.7763 51.9821 10.9664 51.4736C11.298 50.9608 11.6872 50.7062 12.2594 50.5122C12.5325 50.4874 12.5325 50.4874 12.8157 50.4909C12.9176 50.4916 13.0196 50.4923 13.1246 50.493C13.2297 50.4948 13.3347 50.4967 13.4429 50.4985C13.5501 50.4995 13.6573 50.5005 13.7677 50.5015C14.0312 50.5041 14.2946 50.5077 14.5581 50.5122C14.4858 50.2602 14.4136 50.0082 14.3392 49.7485C13.4036 49.4738 12.4901 49.6129 11.6026 49.9667C11.422 49.5707 11.2414 49.1746 11.0553 48.7666C12.238 48.0449 13.9582 47.7082 15.2444 48.4099ZM12.6972 51.7123C12.5166 51.9623 12.5166 51.9623 12.4783 52.2577C12.566 52.5199 12.566 52.5199 12.8067 52.6941C13.4349 52.8747 13.7872 52.778 14.3392 52.4759C14.5898 52.1012 14.5776 51.9321 14.5581 51.4941C14.3506 51.4881 14.1431 51.4839 13.9355 51.4804C13.82 51.4779 13.7044 51.4754 13.5853 51.4728C13.2373 51.4945 13.0056 51.5528 12.6972 51.7123Z" fill="#5B5B5B"/>
<path d="M50.461 48.2212C52.1426 48.0096 52.1426 48.0096 52.6213 48.3604C52.9664 48.7408 53.1988 49.1776 53.4165 49.6394C53.7587 49.317 53.9992 49.0399 54.2101 48.6235C54.3908 48.3669 54.5182 48.24 54.8319 48.1822C55.3839 48.1441 55.9307 48.1772 56.4814 48.2212C56.1497 48.6671 55.8146 49.1092 55.4655 49.5419C55.4074 49.6153 55.3492 49.6888 55.2893 49.7645C55.1699 49.9154 55.049 50.0651 54.9267 50.2137C54.5896 50.6182 54.5896 50.6182 54.5428 51.1144C54.8038 51.4916 55.0804 51.8499 55.3731 52.2032C55.4311 52.2743 55.4891 52.3453 55.5489 52.4184C55.7989 52.7245 56.0501 53.0292 56.3044 53.3317C56.4814 53.567 56.4814 53.567 56.4814 53.7852C54.8447 53.952 54.8447 53.952 54.3097 53.5537C54.0927 53.2762 53.9133 53.0031 53.7449 52.6942C53.6726 52.5862 53.6004 52.4782 53.526 52.3669C53.4537 52.3669 53.3815 52.3669 53.307 52.3669C53.1317 52.5795 52.9684 52.7916 52.8076 53.0146C52.326 53.672 52.326 53.672 52.2124 53.7852C51.8991 53.7931 51.5884 53.7952 51.2751 53.792C51.1869 53.7915 51.0986 53.791 51.0077 53.7905C50.789 53.7892 50.5703 53.7872 50.3516 53.7852C50.8008 53.0643 51.3141 52.4221 51.8652 51.7779C52.1108 51.495 52.1108 51.495 52.3219 51.1668C52.2857 50.7875 52.1011 50.5479 51.8742 50.2497C51.8064 50.1596 51.7386 50.0694 51.6687 49.9765C51.5976 49.8833 51.5264 49.7901 51.453 49.694C51.3126 49.509 51.1725 49.3238 51.0327 49.1383C50.9703 49.0565 50.908 48.9747 50.8437 48.8905C50.6914 48.6738 50.5724 48.4608 50.461 48.2212Z" fill="#5B5B5B"/>
<path d="M41.398 48.1054C41.6046 48.1088 41.6046 48.1088 41.8154 48.1123C41.8154 48.6523 41.8154 49.1923 41.8154 49.7487C41.5614 49.7588 41.5614 49.7588 41.3023 49.7692C40.8709 49.8112 40.7403 49.8427 40.3855 50.1169C40.0603 50.5561 40.0463 50.8978 40.0293 51.4308C40.0248 51.5676 40.0202 51.7043 40.0154 51.8452C40.0111 51.9882 40.0068 52.1311 40.0024 52.2784C39.9977 52.4241 39.9929 52.5698 39.9881 52.7155C39.9765 53.0721 39.9654 53.4287 39.9545 53.7853C39.3766 53.7853 38.7986 53.7853 38.2031 53.7853C38.2031 51.9492 38.2031 50.1131 38.2031 48.2214C38.745 48.2214 39.2868 48.2214 39.8451 48.2214C39.8812 48.4014 39.9173 48.5814 39.9545 48.7668C40.0561 48.6791 40.1577 48.5913 40.2624 48.5009C40.6252 48.1875 40.92 48.0976 41.398 48.1054Z" fill="#5B5B5B"/>
<path d="M21.4762 48.1054C21.6827 48.1088 21.6827 48.1088 21.8935 48.1123C21.8935 48.6523 21.8935 49.1923 21.8935 49.7487C21.6395 49.7588 21.6395 49.7588 21.3804 49.7692C20.9491 49.8112 20.8185 49.8427 20.4636 50.1169C20.1384 50.5561 20.1244 50.8978 20.1075 51.4308C20.1029 51.5676 20.0983 51.7043 20.0936 51.8452C20.0893 51.9882 20.085 52.1311 20.0805 52.2784C20.0758 52.4241 20.071 52.5698 20.0662 52.7155C20.0546 53.0721 20.0436 53.4287 20.0326 53.7853C19.4547 53.7853 18.8767 53.7853 18.2812 53.7853C18.2812 51.9492 18.2812 50.1131 18.2812 48.2214C18.8231 48.2214 19.3649 48.2214 19.9232 48.2214C19.9593 48.4014 19.9954 48.5814 20.0326 48.7668C20.1342 48.6791 20.2358 48.5913 20.3405 48.5009C20.7033 48.1875 20.9982 48.0976 21.4762 48.1054Z" fill="#5B5B5B"/>
</g>
<defs>
<clipPath id="clip0_411_4107">
<rect width="59" height="53.8942" fill="white"/>
</clipPath>
</defs>
</svg>
